#define noname_width 283
#define noname_height 161
static char noname_bits[] = {
 0x00,0x00,0x00,0x00,0x00,0x00,0xf8,0x3f,0x00,0x00,0x00,0x00,0x00,0x00,0x00,
 0x00,0x00,0x00,0x00,0x00,0x00,0x00,0x00,0x00,0x00,0x00,0x00,0x00,0x00,0x00,
 0x00,0x00,0x00,0x00,0x00,0x00,0x00,0x00,0x00,0x00,0x00,0xe0,0x0f,0xc0,0x0f,
 0x00,0x00,0x00,0x00,0x00,0x00,0x00,0x00,0x00,0x00,0x00,0x00,0x00,0x00,0x00,
 0x00,0x00,0x00,0x00,0x00,0x00,0x00,0x00,0x00,0x00,0x00,0x00,0x00,0x00,0x00,
 0x00,0x00,0x3c,0x00,0x00,0xf0,0x00,0x00,0x00,0x00,0x00,0x00,0x00,0x00,0x00,
 0x00,0x00,0x00,0x00,0x00,0x00,0x00,0x00,0x00,0x00,0x00,0x00,0x00,0x00,0x00,
 0x00,0x00,0x00,0x00,0x00,0x00,0x00,0x80,0x03,0x00,0x00,0x80,0x07,0x00,0x00,
 0x00,0x00,0x00,0x00,0x00,0x00,0x00,0x00,0x00,0x00,0x00,0x00,0x00,0x00,0x00,
 0x00,0x00,0x00,0x00,0x00,0x00,0x00,0x00,0x00,0x00,0x00,0x00,0x00,0x60,0x00,
 0x00,0x00,0x00,0x1c,0x00,0x00,0x00,0x00,0x00,0x00,0x00,0x00,0x00,0x00,0x00,
 0x00,0x00,0x00,0x00,0x00,0x00,0x00,0x00,0x00,0x00,0x00,0x00,0x00,0x00,0x00,
 0x00,0x00,0x00,0x00,0x18,0x00,0x00,0x00,0x00,0x70,0x00,0x00,0x00,0x00,0x00,
 0x00,0x00,0x00,0x00,0x00,0x00,0x00,0x00,0x00,0x00,0x00,0x00,0x00,0x00,0x00,
 0x00,0x00,0x00,0x00,0x00,0x00,0x00,0x00,0x00,0x00,0x06,0x00,0x00,0x00,0x00,
 0xc0,0x01,0x00,0x00,0x00,0x00,0x00,0x00,0x00,0x00,0x00,0x00,0x00,0x00,0x00,
 0x00,0x00,0x00,0x00,0x00,0x00,0x00,0x00,0x00,0x00,0x00,0x00,0x00,0x00,0x00,
 0x80,0x01,0x00,0x00,0x00,0x00,0x00,0x07,0x00,0x00,0x00,0x00,0x00,0x00,0x00,
 0x00,0x00,0x00,0x00,0x00,0x00,0x00,0x00,0x00,0x00,0x00,0x00,0x00,0x00,0x00,
 0x00,0x00,0x00,0x00,0x00,0x00,0xe0,0x00,0x00,0x00,0x00,0x00,0x00,0x0c,0x00,
 0x00,0x00,0x00,0x00,0x00,0x00,0x00,0x00,0x00,0x00,0x00,0x00,0x00,0x00,0x00,
 0x00,0x00,0x00,0x00,0x00,0x00,0x00,0x00,0x00,0x00,0x00,0x00,0x30,0x00,0x00,
 0x00,0x00,0x00,0x00,0x18,0x00,0x00,0x00,0x00,0x00,0x00,0x00,0x00,0x00,0x00,
 0x00,0x00,0x00,0x00,0x00,0x00,0x00,0x00,0x00,0x00,0x00,0x00,0x00,0x00,0x00,
 0x00,0x00,0x00,0x18,0x00,0x00,0x00,0x00,0x00,0x00,0x60,0x00,0x00,0x00,0x00,
 0x00,0x00,0x00,0x00,0x00,0x00,0x00,0x00,0x00,0x00,0x00,0x00,0x00,0x00,0x00,
 0x00,0x00,0x00,0x00,0x00,0x00,0x00,0x00,0x00,0x0c,0x00,0x00,0x00,0x00,0x00,
 0x00,0xc0,0x00,0x00,0x00,0x00,0x00,0x00,0x00,0x00,0x00,0x00,0x00,0x00,0x00,
 0x00,0x00,0x00,0x00,0x00,0x00,0x00,0x00,0x00,0x00,0x00,0x00,0x00,0x00,0x00,
 0x03,0x00,0x00,0x00,0x00,0x00,0x00,0x80,0x01,0x00,0x00,0x00,0x00,0x00,0x00,
 0x00,0x00,0x00,0x00,0x00,0x00,0x00,0x00,0x00,0x00,0x00,0x00,0x00,0x00,0x00,
 0x00,0x00,0x00,0x00,0x00,0x80,0x01,0x00,0x00,0x00,0x00,0x00,0x00,0x00,0x03,
 0x00,0x00,0x00,0x00,0x00,0x00,0x00,0x00,0x00,0x00,0x00,0x00,0x00,0x00,0x00,
 0x00,0x00,0x00,0x00,0x00,0x00,0x00,0x00,0x00,0x00,0x00,0xc0,0x00,0x00,0x00,
 0x00,0x00,0x00,0x00,0x00,0x04,0x00,0x00,0x00,0x00,0x00,0x00,0x00,0x00,0x00,
 0x00,0x00,0x00,0x00,0x00,0x00,0x00,0x00,0x00,0x00,0x00,0x00,0x00,0x00,0x00,
 0x00,0x00,0x60,0x00,0x00,0x00,0x00,0x00,0x00,0x00,0x00,0x0c,0x00,0x00,0x00,
 0x00,0x00,0x00,0x00,0x00,0x00,0x00,0x00,0x00,0x00,0x00,0x00,0x00,0x00,0x00,
 0x00,0x00,0x00,0x00,0x00,0x00,0x00,0x00,0x20,0x00,0x00,0x00,0x00,0x00,0x00,
 0x00,0x00,0x18,0x00,0x00,0x00,0x00,0x00,0x00,0x00,0x00,0x00,0x00,0x00,0x00,
 0x00,0x00,0x00,0x00,0x00,0x00,0x00,0x00,0x00,0x00,0x00,0x00,0x00,0x00,0x10,
 0x00,0x00,0x00,0x00,0x00,0x00,0x00,0x00,0x30,0x00,0x00,0x00,0x00,0x00,0x00,
 0x00,0x00,0x00,0x00,0x00,0x00,0x00,0x00,0x00,0x00,0x00,0x00,0x00,0x00,0x00,
 0x00,0x00,0x00,0x00,0x00,0x18,0x00,0x00,0x00,0x00,0x00,0x00,0x00,0x00,0x60,
 0x00,0x00,0x00,0x00,0x00,0x00,0x00,0x00,0x00,0x00,0x00,0x00,0x00,0x00,0x00,
 0x00,0x00,0x00,0x00,0x00,0x00,0x00,0x00,0x00,0x00,0x00,0x0c,0x00,0x00,0x00,
 0x00,0x00,0x00,0x00,0x00,0x40,0x00,0x00,0x00,0x00,0x00,0x00,0x00,0x00,0x00,
 0x00,0x00,0x00,0x00,0x00,0x00,0x00,0x00,0x00,0x00,0x00,0x00,0x00,0x00,0x00,
 0x00,0x00,0x06,0x00,0x00,0x00,0x00,0x00,0x00,0x00,0x00,0x80,0x00,0x00,0x00,
 0x00,0x00,0x00,0x00,0x00,0x00,0x00,0x00,0x00,0x00,0x00,0x00,0x00,0x00,0x00,
 0x00,0x00,0x00,0x00,0x00,0x00,0x00,0x00,0x02,0x00,0x00,0x00,0x00,0x00,0x00,
 0x00,0x00,0x80,0x01,0x00,0x00,0x00,0x00,0x00,0x00,0x00,0x00,0x00,0x00,0x00,
 0x00,0x00,0x00,0x00,0x00,0x00,0x00,0x00,0x00,0x00,0x00,0x00,0x00,0x00,0x01,
 0x00,0x00,0x00,0x00,0x00,0x00,0x00,0x00,0x00,0x01,0x00,0x00,0x00,0x00,0x00,
 0x00,0x00,0x00,0x00,0x00,0x00,0x00,0x00,0x00,0x00,0x00,0x00,0x00,0x00,0x00,
 0x00,0x00,0x00,0x00,0x00,0x01,0x00,0x00,0x00,0x00,0x00,0x00,0x00,0x00,0x00,
 0x02,0x00,0x00,0x00,0x00,0x00,0x00,0x00,0x00,0x00,0x00,0x00,0x00,0x00,0x00,
 0x00,0x00,0x00,0x00,0x00,0x00,0x00,0x00,0x00,0x00,0x80,0x00,0x00,0x00,0x00,
 0x00,0x00,0x00,0x00,0x00,0x00,0x06,0x00,0x00,0x00,0x00,0x00,0x00,0x00,0x00,
 0x00,0x00,0x00,0x00,0x00,0x00,0x00,0x00,0x00,0x00,0x00,0x00,0x00,0x00,0x00,
 0x00,0x80,0x00,0x00,0x00,0x00,0xc0,0x0f,0x00,0x00,0x00,0x00,0x04,0x00,0x00,
 0x00,0x00,0x00,0x00,0x00,0x00,0x00,0x00,0x00,0x00,0x00,0x00,0x00,0x00,0x00,
 0x00,0x00,0x00,0x00,0x00,0x00,0x00,0x40,0x00,0x00,0x00,0x00,0x3e,0xf8,0x00,
 0x00,0x00,0x00,0x0c,0x00,0x00,0x00,0x00,0x00,0x00,0x00,0x00,0x00,0x00,0x00,
 0x00,0x00,0x00,0x00,0x00,0x00,0x00,0x00,0x00,0x00,0x00,0x00,0x00,0x60,0x00,
 0x00,0x00,0x80,0x01,0x00,0x07,0x00,0x00,0x00,0x08,0x00,0x00,0x00,0x00,0x00,
 0x00,0x00,0x00,0x00,0x00,0x00,0x00,0x00,0x00,0x00,0x00,0x00,0x00,0x00,0x00,
 0x00,0x00,0x00,0x00,0x20,0x00,0x00,0x00,0x60,0x00,0x00,0x0c,0x00,0x00,0x00,
 0x18,0x00,0x00,0x00,0x00,0x00,0x00,0x00,0x00,0x00,0x00,0x00,0x00,0x00,0x00,
 0x00,0x00,0x00,0x00,0x00,0x00,0x00,0x00,0x00,0x00,0x30,0x00,0x00,0x00,0x30,
 0x00,0x00,0x30,0x00,0x00,0x00,0x10,0x00,0x00,0x00,0x00,0x00,0x00,0x00,0x00,
 0x00,0x00,0x00,0x00,0x00,0x00,0x00,0x00,0x00,0x00,0x00,0x00,0x00,0x00,0x00,
 0x00,0x10,0x00,0x00,0x00,0x0c,0x00,0x00,0x60,0x00,0x00,0x00,0x10,0x00,0x00,
 0x00,0x00,0x00,0x00,0x00,0x00,0x00,0x00,0x00,0x00,0x00,0x00,0x00,0x00,0x00,
 0x00,0x00,0x00,0x00,0x00,0x00,0x00,0x10,0x00,0x00,0x00,0x06,0x00,0x00,0x80,
 0x01,0x00,0x00,0x20,0x00,0x00,0x00,0x00,0x00,0x00,0x00,0x00,0x00,0x00,0x00,
 0x00,0x00,0x00,0x00,0x00,0x00,0x00,0x00,0x00,0x00,0x00,0x00,0x00,0x10,0x00,
 0x00,0x00,0x01,0x00,0x00,0x00,0x03,0x00,0x00,0x20,0x00,0x00,0x00,0x00,0x00,
 0x00,0x00,0x00,0x00,0x00,0x00,0x00,0x00,0x00,0x00,0x00,0x00,0x00,0x00,0x00,
 0x00,0x00,0x00,0x00,0x08,0x00,0x00,0x80,0x01,0x00,0x00,0x00,0x02,0x00,0x00,
 0x20,0x00,0x00,0x00,0x00,0x00,0x00,0x00,0x00,0x00,0x00,0x00,0x00,0x00,0x00,
 0x00,0x00,0x00,0x00,0x00,0x00,0x00,0x00,0x00,0x00,0x08,0x00,0x00,0xc0,0x00,
 0x00,0x00,0x00,0x04,0x00,0x00,0x40,0x00,0x00,0x00,0x00,0x00,0x00,0x00,0x00,
 0x00,0x00,0x00,0x00,0x00,0x00,0x00,0x00,0x00,0x00,0x00,0x00,0x00,0x00,0x00,
 0x00,0x08,0x00,0x00,0x40,0x00,0x00,0x00,0x00,0x0c,0x00,0x00,0x40,0x00,0x00,
 0x00,0x00,0x00,0x00,0x00,0x00,0x00,0x00,0x00,0x00,0x00,0x00,0x00,0x00,0x00,
 0x00,0x00,0x00,0x00,0x00,0x00,0x00,0x04,0x00,0x00,0x60,0x00,0x00,0x00,0x00,
 0x08,0x00,0x00,0x40,0x00,0x00,0x00,0x00,0x00,0x00,0x00,0x00,0x00,0x00,0x00,
 0x00,0x00,0x00,0x00,0x00,0x00,0x00,0x00,0x00,0x00,0x00,0x00,0x00,0x04,0x00,
 0x00,0x30,0x00,0x00,0x00,0x00,0x10,0x00,0x00,0xc0,0x00,0x00,0x00,0x00,0x00,
 0x00,0x00,0x00,0x00,0x00,0x00,0x00,0x00,0x00,0x00,0x00,0x00,0x00,0x00,0x00,
 0x00,0x00,0x00,0x00,0x04,0x00,0x00,0x10,0x00,0x00,0x00,0x00,0x30,0x00,0x00,
 0x80,0x00,0x00,0x00,0x00,0x00,0x00,0x00,0x00,0x00,0x00,0x00,0x00,0x00,0x00,
 0x00,0x00,0x00,0x00,0x00,0x00,0x00,0x00,0x00,0x00,0x04,0x00,0x00,0x18,0x00,
 0x00,0x00,0x00,0x20,0x00,0x00,0x80,0x00,0x00,0x00,0x00,0x00,0x00,0x00,0x00,
 0x00,0x00,0x00,0x00,0x00,0x00,0x00,0x00,0x00,0x00,0x00,0x00,0x00,0x00,0x00,
 0x00,0x04,0x00,0x00,0x08,0x00,0x00,0x00,0x00,0x20,0x00,0x00,0x80,0x00,0x00,
 0x00,0x00,0x00,0x00,0x00,0x00,0x00,0x00,0x00,0x00,0x00,0x00,0x00,0x00,0x00,
 0x00,0x00,0x00,0x00,0x00,0x00,0x00,0x02,0x00,0x00,0x08,0x00,0x00,0x00,0x00,
 0x20,0x00,0x00,0x80,0x00,0x00,0x00,0x00,0x00,0x00,0x00,0x00,0x00,0x00,0x00,
 0x00,0x00,0x00,0x00,0x00,0x00,0x00,0x00,0x00,0x00,0x00,0x00,0x00,0x02,0x00,
 0x00,0x08,0x00,0x00,0x00,0x00,0x40,0x00,0x00,0x80,0x00,0x00,0x00,0x00,0x00,
 0x00,0x00,0x00,0x00,0x00,0x00,0x00,0x00,0x00,0x00,0x00,0x00,0x00,0x00,0x00,
 0x00,0x00,0x00,0x00,0x02,0x00,0x00,0x08,0x00,0x00,0x00,0x00,0x40,0x00,0x00,
 0x80,0x00,0x00,0x00,0x00,0x00,0x00,0x00,0x00,0x00,0x00,0x00,0x00,0x00,0x00,
 0x00,0x00,0x00,0x00,0x00,0x00,0x00,0x00,0x00,0x00,0x02,0x00,0x00,0x0c,0x00,
 0x00,0x00,0x00,0x40,0x00,0x00,0x80,0x00,0x00,0x00,0x00,0x00,0x00,0x00,0x00,
 0x00,0x00,0x00,0x00,0x00,0x00,0x00,0x00,0x00,0x00,0x00,0x00,0x00,0x00,0x00,
 0x00,0x02,0x00,0x00,0x04,0x00,0x00,0x00,0x00,0xc0,0x00,0x00,0x00,0x01,0x00,
 0x00,0x00,0x00,0x00,0x00,0x00,0x00,0x00,0x00,0x00,0x00,0x00,0x00,0x00,0x00,
 0x00,0x00,0x00,0x00,0x00,0x00,0x00,0x02,0x00,0x00,0x04,0x00,0x00,0x00,0x00,
 0xc0,0x00,0x00,0x00,0x01,0x00,0x00,0x00,0x00,0x00,0x00,0x00,0x00,0x00,0x00,
 0x00,0x00,0x00,0x00,0x00,0x00,0x00,0x00,0x00,0x00,0x00,0x00,0xff,0x03,0x00,
 0x00,0x04,0x00,0x00,0x00,0x00,0x80,0x00,0x00,0x00,0xff,0x03,0x00,0x00,0x00,
 0x00,0x00,0x00,0x00,0x00,0x00,0x00,0x00,0x00,0x00,0x00,0x00,0x00,0x00,0x00,
 0x00,0x00,0x00,0x01,0x02,0x00,0x00,0x04,0x00,0x00,0x00,0x00,0x80,0x00,0x00,
 0x00,0x01,0x02,0x00,0x00,0x00,0x00,0x00,0x00,0x00,0x00,0x00,0x00,0x00,0x00,
 0x00,0x00,0x00,0x00,0x00,0x00,0x00,0x00,0x00,0x01,0x02,0x00,0x00,0x06,0x00,
 0x00,0x00,0x00,0xc0,0x00,0x00,0x00,0x01,0x02,0x00,0x00,0x00,0x00,0x00,0x00,
 0x00,0x00,0x00,0x00,0x00,0x00,0x00,0x00,0x00,0x00,0x00,0x00,0x00,0x00,0x00,
 0x01,0x02,0x00,0x00,0x06,0x00,0x00,0x00,0x00,0xc0,0x00,0x00,0x00,0x01,0x02,
 0xfc,0xf6,0xff,0x01,0x03,0x00,0xff,0xe9,0xff,0x3f,0x00,0x00,0x00,0x00,0x00,
 0x00,0x00,0x00,0x00,0x00,0x00,0x01,0x02,0x00,0x00,0x0e,0x00,0x00,0x00,0x00,
 0xc0,0x00,0x00,0x80,0x00,0x02,0x87,0xc7,0xc3,0x87,0x03,0xc0,0xc3,0x8f,0x0f,
 0x3c,0x00,0x00,0x00,0x00,0x00,0x00,0x00,0x00,0x00,0x00,0x00,0x01,0x02,0x00,
 0x00,0x0a,0x00,0x00,0x00,0x00,0xc0,0x00,0x00,0x80,0x00,0x82,0x07,0x87,0x83,
 0x87,0x03,0xe0,0x00,0x0f,0x07,0x30,0x00,0x00,0x00,0x00,0x00,0x00,0x00,0x00,
 0x00,0x00,0x00,0x01,0x02,0x00,0x00,0x0e,0x00,0x00,0x00,0x00,0x40,0x01,0x00,
 0x80,0x00,0xc2,0x03,0x87,0x03,0x8f,0x07,0x70,0x00,0x0e,0x07,0x20,0x00,0x00,
 0x00,0x00,0x00,0x00,0x00,0x00,0x00,0x00,0x00,0x01,0x02,0x00,0x00,0x0a,0x00,
 0x00,0x00,0x00,0x60,0x01,0x00,0x80,0x00,0xc2,0x01,0x86,0x03,0xcf,0x07,0x38,
 0x00,0x0c,0x07,0x20,0x00,0x00,0x00,0x00,0x00,0x00,0x00,0x00,0x00,0x00,0x00,
 0x01,0x04,0x00,0x00,0x0a,0x00,0x00,0x00,0x00,0x60,0x01,0x00,0x80,0x00,0xc2,
 0x03,0x8e,0x03,0xce,0x0f,0x38,0x00,0x0c,0x07,0x00,0x00,0x00,0x00,0x00,0x00,
 0x00,0x00,0x00,0x00,0x00,0x00,0x01,0x04,0x00,0x00,0x1a,0x00,0x00,0x00,0x00,
 0x20,0x01,0x00,0x80,0x00,0xc2,0x07,0x80,0x03,0xce,0x0e,0x3c,0x00,0x08,0x07,
 0x00,0x00,0x00,0x00,0x00,0x00,0x00,0x00,0x00,0x00,0x00,0x00,0x01,0x04,0x00,
 0x00,0x19,0x00,0x00,0x00,0x00,0x30,0x01,0x00,0x80,0x00,0xc2,0x07,0x80,0x03,
 0x4e,0x0e,0x1c,0x00,0x08,0x07,0x00,0x00,0x00,0x00,0x00,0x00,0x00,0x00,0x00,
 0x00,0x00,0x00,0x01,0x04,0x00,0x00,0x31,0x00,0x00,0x00,0x00,0x30,0x01,0x00,
 0xc0,0x00,0x82,0x0f,0x80,0x03,0x6f,0x1e,0x1e,0x00,0x00,0x07,0x08,0x00,0x00,
 0x00,0x00,0x00,0x00,0x00,0x00,0x00,0x00,0x00,0x01,0x04,0x00,0x00,0x71,0x00,
 0x00,0x00,0x00,0x28,0x01,0x00,0x40,0x00,0x02,0x3f,0x80,0x03,0x2f,0x1e,0x1e,
 0x00,0x00,0x07,0x08,0x00,0x00,0x00,0x00,0x00,0x00,0x00,0x00,0x00,0x00,0x00,
 0x01,0x08,0x00,0x00,0x51,0x00,0x00,0x00,0x00,0x2c,0x01,0x00,0x40,0x00,0x02,
 0xfe,0x80,0x83,0x37,0x1e,0x1e,0x00,0x00,0x07,0x0c,0x00,0x00,0x00,0x00,0x00,
 0x00,0x00,0x00,0x00,0x00,0x00,0x01,0x08,0x00,0x00,0x91,0x00,0x00,0x00,0x00,
 0x14,0x02,0x00,0x40,0x00,0x02,0xfc,0x81,0xe3,0x37,0x1c,0x1e,0x00,0x00,0xff,
 0x0f,0x00,0x00,0x00,0x00,0x00,0x00,0x00,0x00,0x00,0x00,0x00,0x01,0x08,0x00,
 0x00,0x91,0x01,0x00,0x00,0x00,0x12,0x02,0x00,0x20,0x00,0x02,0xf0,0x83,0xff,
 0x10,0x3c,0x1e,0x00,0x00,0x07,0x0c,0x00,0x00,0x00,0x00,0x00,0x00,0x00,0x00,
 0x00,0x00,0x00,0x01,0x10,0x00,0x00,0x21,0x01,0x00,0x00,0x00,0x13,0x02,0x00,
 0x20,0x00,0x02,0xe0,0x87,0x03,0x18,0x3c,0x1e,0x00,0x00,0x07,0x08,0x00,0x00,
 0x00,0x00,0x00,0x00,0x00,0x00,0x00,0x00,0x00,0x01,0x10,0x00,0x00,0x21,0x06,
 0x00,0x00,0x80,0x11,0x02,0x00,0x20,0x00,0x02,0xc0,0x8f,0x03,0x18,0x78,0x1e,
 0x00,0x00,0x07,0x08,0x00,0x00,0x00,0x00,0x00,0x00,0x00,0x00,0x00,0x00,0x00,
 0x01,0x10,0x00,0x00,0x21,0x0c,0x00,0x00,0x60,0x08,0x02,0x00,0x10,0x00,0x02,
 0x80,0x8f,0x03,0xfc,0x7f,0x1c,0x00,0x00,0x07,0x00,0x00,0x00,0x00,0x00,0x00,
 0x00,0x00,0x00,0x00,0x00,0x00,0x01,0x30,0x00,0x80,0x20,0x30,0x00,0x00,0x30,
 0x08,0x02,0x00,0x10,0x00,0x62,0x00,0x8f,0x03,0x0c,0x70,0x3c,0x00,0x00,0x07,
 0x00,0x00,0x00,0x00,0x00,0x00,0x00,0x00,0x00,0x00,0x00,0x00,0x01,0x20,0x00,
 0x80,0x40,0x60,0x00,0x00,0x0c,0x08,0x02,0x00,0x18,0x00,0x62,0x00,0x8f,0x03,
 0x06,0xf0,0x38,0x00,0x00,0x07,0x40,0x00,0x00,0x00,0x00,0x00,0x00,0x00,0x00,
 0x00,0x00,0x00,0x01,0x60,0x00,0x80,0x40,0xb8,0x03,0x00,0x37,0x08,0x02,0x00,
 0x08,0x00,0xe2,0x00,0x8f,0x03,0x06,0xf0,0x38,0x00,0x08,0x07,0x40,0x00,0x00,
 0x00,0x00,0x00,0x00,0x00,0x00,0x00,0x00,0x00,0x01,0x40,0x00,0x80,0x40,0x0c,
 0x7e,0xf8,0xc0,0x08,0x06,0x00,0x0c,0x00,0xe2,0x01,0x87,0x03,0x07,0xf0,0x70,
 0x00,0x0c,0x07,0x60,0x00,0x00,0x00,0x00,0x00,0x00,0x00,0x00,0x00,0x00,0x00,
 0x01,0xc0,0x00,0x80,0x40,0x03,0xc0,0x07,0x80,0x07,0x04,0x00,0x04,0x00,0xc2,
 0x81,0x87,0x03,0x03,0xe0,0xe1,0x00,0x06,0x07,0x70,0x00,0x00,0x00,0x00,0x00,
 0x00,0x00,0x00,0x00,0x00,0x00,0x01,0x80,0x00,0x80,0xc0,0x01,0x00,0x00,0x00,
 0x06,0x04,0x00,0x06,0x00,0xc2,0xe7,0xc3,0x87,0x07,0xe0,0xc1,0xc3,0x87,0x0f,
 0x3c,0x00,0x00,0x00,0x00,0x00,0x00,0x00,0x00,0x00,0x00,0x00,0x01,0x80,0x01,
 0x80,0xc0,0x00,0x00,0x00,0x00,0x0c,0x04,0x00,0x02,0x00,0xc2,0xfd,0xf1,0xdf,
 0x0f,0xf8,0x07,0xff,0xe1,0xff,0x3f,0x00,0x00,0x00,0x00,0x00,0x00,0x00,0x00,
 0x00,0x00,0x00,0x01,0x00,0x01,0x80,0xa0,0x00,0x00,0x00,0x00,0x1c,0x04,0x00,
 0x03,0x00,0x02,0x00,0x00,0x00,0x00,0x00,0x00,0x00,0x00,0x00,0x00,0x00,0x00,
 0x00,0x00,0x00,0x00,0x00,0x00,0x00,0x00,0x00,0x01,0x00,0x03,0x40,0x98,0x00,
 0x00,0x00,0x00,0x32,0x04,0x80,0x01,0x00,0x02,0x00,0x00,0x00,0x00,0x00,0x00,
 0x00,0x00,0x00,0x00,0x00,0x00,0x00,0x00,0x00,0x00,0x00,0x00,0x00,0x00,0x00,
 0x01,0x00,0x06,0x40,0x88,0x00,0x00,0x00,0x00,0x62,0x04,0x80,0x01,0x00,0x02,
 0x00,0x00,0x00,0x00,0x00,0x00,0x00,0x00,0x00,0x00,0x00,0x00,0x00,0x00,0x00,
 0x00,0x00,0x00,0x00,0x00,0x00,0x01,0x00,0x0e,0x40,0x04,0x01,0x00,0x00,0x00,
 0xc2,0x04,0xc0,0x00,0x00,0x02,0x00,0x00,0x00,0x00,0x00,0x00,0x00,0x00,0x00,
 0x00,0x00,0x00,0x00,0x00,0x00,0x00,0x00,0x00,0x00,0x00,0x00,0x01,0x00,0x1c,
 0x40,0x06,0x01,0x00,0x00,0x00,0x82,0x04,0xe0,0x00,0x00,0x02,0x00,0x00,0x00,
 0x00,0x00,0x00,0x00,0x00,0x00,0x00,0x00,0x00,0x00,0x00,0x00,0x00,0x00,0x00,
 0x00,0x00,0x00,0x01,0x00,0x14,0x40,0x02,0x01,0x00,0x00,0x00,0x82,0x09,0x70,
 0x00,0x00,0x02,0x00,0x00,0x00,0x00,0x00,0x00,0x00,0x00,0x00,0x00,0x00,0x00,
 0x00,0x00,0x00,0x00,0x00,0x00,0x00,0x00,0x00,0x01,0x00,0x28,0x40,0x01,0x01,
 0x00,0x00,0x00,0x01,0x0b,0x58,0x00,0x00,0xe2,0xff,0x7f,0xff,0xff,0xf9,0x0f,
 0xe0,0xff,0x3f,0xf0,0x1b,0xc0,0x7f,0x02,0xfc,0x03,0xfe,0x3f,0xfe,0xff,0x03,
 0x01,0x00,0x68,0xc0,0x01,0x01,0x00,0x00,0x00,0x01,0x0a,0x2c,0x00,0x00,0xe2,
 0xe1,0x78,0x7c,0xe0,0xe1,0x03,0x80,0x0f,0x3c,0x1c,0x1e,0xf0,0xf0,0x03,0x8f,
 0x0f,0x78,0xf8,0xf8,0xc0,0x03,0x01,0x00,0xd0,0xc0,0x00,0x02,0x00,0x00,0x00,
 0x01,0x0e,0x26,0x00,0x00,0xe2,0xe0,0x60,0x38,0x80,0xc1,0x01,0x00,0x07,0x30,
 0x1e,0x1c,0x38,0xc0,0x83,0x03,0x1e,0x70,0xf0,0x70,0x00,0x03,0x01,0x00,0x90,
 0xc1,0x00,0x02,0x00,0x00,0x00,0x01,0x0c,0x13,0x00,0x00,0x62,0xe0,0x60,0x38,
 0x00,0xc1,0x01,0x00,0x07,0x20,0x0f,0x1c,0x1c,0x80,0xc3,0x01,0x1c,0x70,0xe0,
 0x71,0x00,0x02,0x01,0x00,0x20,0x66,0x00,0x02,0x00,0x00,0x80,0x00,0x8c,0x11,
 0x00,0x00,0x62,0xe0,0x40,0x38,0x00,0xc1,0x01,0x00,0x07,0x20,0x07,0x18,0x0e,
 0x00,0xe3,0x00,0x38,0x70,0xe0,0x71,0x00,0x02,0x01,0x00,0x20,0x6c,0x00,0x02,
 0x00,0x00,0x80,0x00,0xc8,0x08,0x00,0x00,0x62,0xe0,0x40,0x38,0x00,0xc0,0x01,
 0x00,0x07,0x00,0x0f,0x38,0x0e,0x00,0xe3,0x00,0x38,0x70,0xc0,0x71,0x00,0x00,
 0x01,0x00,0x40,0x78,0x00,0x04,0x00,0x00,0x80,0x00,0x68,0x08,0x00,0x00,0x02,
 0xe0,0x00,0x38,0x00,0xc0,0x01,0x00,0x07,0x00,0x1f,0x00,0x0f,0x00,0xf2,0x00,
 0x70,0x70,0xc0,0x71,0x00,0x00,0x01,0x00,0x40,0x30,0x00,0x04,0x00,0x00,0x80,
 0x00,0x18,0x04,0x00,0x00,0x02,0xe0,0x00,0x38,0x00,0xc0,0x01,0x00,0x07,0x00,
 0x1f,0x00,0x07,0x00,0x72,0x00,0x70,0x70,0xc0,0x71,0x00,0x00,0x01,0x00,0x80,
 0xe0,0x00,0x04,0x00,0x00,0x80,0x00,0x1c,0x04,0x00,0x00,0x02,0xe0,0x00,0x38,
 0x40,0xc0,0x01,0x00,0x07,0x08,0x3e,0x80,0x07,0x00,0x78,0x00,0xf0,0x70,0xe0,
 0x71,0x80,0x00,0x01,0x00,0x80,0x80,0x03,0x04,0x00,0x00,0x40,0x00,0x13,0x06,
 0x00,0x00,0x02,0xe0,0x00,0x38,0x40,0xc0,0x01,0x00,0x07,0x08,0xfc,0x80,0x07,
 0x00,0x78,0x00,0xf0,0x70,0xe0,0x71,0x80,0x00,0x01,0x00,0x00,0x01,0x06,0x04,
 0x00,0x00,0x40,0xc0,0x11,0x02,0x00,0x00,0x02,0xe0,0x00,0x38,0x60,0xc0,0x01,
 0x00,0x07,0x0c,0xf8,0x83,0x07,0x00,0x78,0x00,0xf0,0x70,0xf0,0x70,0xc0,0x00,
 0x01,0x00,0x00,0x01,0x18,0x08,0x00,0x00,0x40,0x70,0x00,0x03,0x00,0x00,0x02,
 0xe0,0x00,0xf8,0x7f,0xc0,0x01,0x00,0xff,0x0f,0xf0,0x87,0x07,0x00,0x78,0x00,
 0xf0,0x70,0xfc,0xf0,0xff,0x00,0x01,0x00,0x00,0x03,0x60,0x08,0x00,0x00,0x40,
 0x1c,0x00,0x01,0x00,0x00,0x02,0xe0,0x00,0x38,0x60,0xc0,0x01,0x00,0x07,0x0c,
 0xc0,0x8f,0x07,0x00,0x78,0x00,0xf0,0xf0,0x1f,0x70,0xc0,0x00,0x01,0x00,0x00,
 0x02,0x80,0x0f,0x00,0x00,0xa0,0x07,0x80,0x01,0x00,0x00,0x02,0xe0,0x00,0x38,
 0x40,0xc0,0x01,0x00,0x07,0x08,0x80,0x9f,0x07,0x00,0x78,0x00,0xf0,0x70,0x00,
 0x70,0x80,0x00,0x01,0x00,0x00,0x06,0x00,0x3c,0x00,0x00,0x70,0x00,0x80,0x00,
 0x00,0x00,0x02,0xe0,0x00,0x38,0x40,0xc0,0x01,0x00,0x07,0x08,0x00,0xbf,0x07,
 0x00,0x78,0x00,0xf0,0x70,0x00,0x70,0x80,0x00,0x01,0x00,0x00,0x04,0x00,0xf0,
 0x0f,0xe0,0x2f,0x00,0xc0,0x00,0x00,0x00,0x02,0xe0,0x00,0x38,0x00,0xc0,0x01,
 0x00,0x07,0x00,0x00,0x3e,0x07,0x00,0x70,0x00,0x70,0x70,0x00,0x70,0x00,0x00,
 0x01,0x00,0x00,0x0c,0x00,0x10,0xf0,0x3f,0x20,0x00,0x40,0x00,0x00,0x00,0x02,
 0xe0,0x00,0x38,0x00,0xc0,0x01,0x00,0x07,0x80,0x01,0x3c,0x0f,0x00,0xf0,0x00,
 0x70,0x70,0x00,0x70,0x00,0x00,0x01,0x00,0x00,0x08,0x00,0x10,0x00,0x00,0x20,
 0x00,0x60,0x00,0x00,0x00,0x02,0xe0,0x00,0x38,0x00,0xc2,0x01,0x10,0x07,0xc0,
 0x01,0x3c,0x0e,0x00,0xe0,0x00,0x38,0x70,0x00,0x70,0x00,0x04,0x01,0x00,0x00,
 0x18,0x00,0x10,0x00,0x00,0x10,0x00,0x20,0x00,0x00,0x00,0x02,0xe0,0x00,0x38,
 0x00,0xc2,0x01,0x10,0x07,0xc0,0x03,0x3c,0x0e,0x00,0xe2,0x00,0x38,0x70,0x00,
 0x70,0x00,0x04,0x01,0x00,0x00,0x10,0x00,0x10,0x00,0x00,0x10,0x00,0x30,0x00,
 0x00,0x00,0x02,0xe0,0x00,0x38,0x00,0xc3,0x01,0x18,0x07,0xe0,0x07,0x1c,0x1c,
 0x00,0xc3,0x01,0x1c,0x70,0x00,0x70,0x00,0x06,0x01,0x00,0x00,0x30,0x00,0x20,
 0x00,0x00,0x10,0x00,0x10,0x00,0x00,0x00,0x02,0xe0,0x00,0x38,0x80,0xc3,0x01,
 0x1c,0x07,0x70,0x07,0x1e,0x38,0x80,0x81,0x03,0x1e,0x70,0x00,0x70,0x00,0x07,
 0x01,0x00,0x00,0x20,0x00,0x20,0x00,0x00,0x10,0x00,0x18,0x00,0x00,0x00,0x02,
 0xf0,0x01,0x7c,0xe0,0xe1,0x03,0x8f,0x0f,0x3c,0x9f,0x0f,0xf0,0xf0,0x01,0x8f,
 0x0f,0xf8,0x00,0xf8,0xc0,0x03,0x01,0x00,0x00,0x60,0x00,0x20,0x00,0x00,0x08,
 0x00,0x08,0x00,0x00,0x00,0x02,0xfc,0x07,0xff,0xff,0xf9,0xff,0xef,0xff,0x3f,
 0xf7,0x07,0xc0,0x7f,0x00,0xfc,0x03,0xfe,0x03,0xfe,0xff,0x03,0x01,0x00,0x00,
 0x40,0x00,0x20,0x00,0x00,0x08,0x00,0x0c,0x00,0x00,0x00,0x02,0x00,0x00,0x00,
 0x00,0x00,0x00,0x00,0x00,0x00,0x00,0x00,0x00,0x00,0x00,0x00,0x00,0x00,0x00,
 0x00,0x00,0x00,0x01,0x00,0x00,0xc0,0x00,0x40,0x00,0x00,0x08,0x00,0x04,0x00,
 0x00,0x00,0x02,0x00,0x00,0x00,0x00,0x00,0x00,0x00,0x00,0x00,0x00,0x00,0x00,
 0x00,0x00,0x00,0x00,0x00,0x00,0x00,0x00,0x00,0x01,0x00,0x00,0x80,0x00,0x40,
 0x00,0x00,0x08,0x00,0x06,0x00,0x00,0x00,0x02,0x00,0x00,0x00,0x00,0x00,0x00,
 0x00,0x00,0x00,0x00,0x00,0x00,0x00,0x00,0x00,0x00,0x00,0x00,0x00,0x00,0x00,
 0x01,0x00,0x00,0x80,0x01,0x40,0x00,0x00,0x08,0x00,0x02,0x00,0x00,0x00,0x02,
 0x00,0x00,0x00,0x00,0x00,0x00,0x00,0x00,0x00,0x00,0x00,0x00,0x00,0x00,0x00,
 0x00,0x00,0x00,0x00,0x00,0x00,0x01,0x00,0x00,0x00,0x01,0x40,0x00,0x00,0x04,
 0x00,0x02,0x00,0x00,0x00,0x02,0x00,0x00,0x00,0x00,0x00,0x00,0x00,0x00,0x00,
 0x00,0x00,0x00,0x00,0x00,0x00,0x00,0x00,0x00,0x00,0x00,0x00,0x01,0x00,0x00,
 0x00,0x03,0x40,0x00,0x00,0x04,0x00,0x01,0x00,0x00,0x00,0x02,0x00,0x00,0x00,
 0x00,0x00,0x00,0x00,0x00,0x00,0x00,0x00,0x00,0x00,0x00,0x00,0x00,0x00,0x00,
 0x00,0x00,0x00,0x01,0x00,0x00,0x00,0x02,0x80,0x00,0x00,0x04,0x00,0x01,0x00,
 0x00,0x00,0x02,0xfc,0x06,0xf0,0x9f,0xff,0xff,0xff,0xe3,0x03,0xf8,0x03,0xfe,
 0xd3,0xff,0x7f,0x00,0x00,0x00,0x00,0x00,0x00,0x01,0x00,0x00,0x00,0x06,0x80,
 0x00,0x00,0x04,0x80,0x00,0x00,0x00,0x00,0x02,0x87,0x07,0x3c,0xfc,0x7c,0xf8,
 0xc0,0x83,0x07,0xe0,0x80,0x87,0x1f,0x1f,0x78,0x00,0x00,0x00,0x00,0x00,0x00,
 0x01,0x00,0x00,0x00,0x04,0x80,0x00,0x00,0x02,0x80,0x00,0x00,0x00,0x00,0x82,
 0x07,0x07,0x0e,0xf0,0x38,0x70,0x00,0x03,0x0f,0x40,0xc0,0x01,0x1e,0x0e,0x60,
 0x00,0x00,0x00,0x00,0x00,0x00,0x01,0x00,0x00,0x00,0x0c,0x80,0x00,0x00,0x02,
 0x60,0x00,0x00,0x00,0x00,0xc2,0x03,0x07,0x07,0xe0,0x38,0x70,0x00,0x02,0x1f,
 0x40,0xe0,0x00,0x1c,0x0e,0x40,0x00,0x00,0x00,0x00,0x00,0x00,0x01,0x00,0x00,
 0x00,0x18,0x00,0x01,0x00,0x02,0x30,0x00,0x00,0x00,0x00,0xc2,0x01,0x86,0x03,
 0xc0,0x38,0x70,0x00,0x02,0x1f,0x40,0x70,0x00,0x18,0x0e,0x40,0x00,0x00,0x00,
 0x00,0x00,0x00,0x01,0x00,0x00,0x00,0x30,0x00,0x01,0x00,0x02,0x18,0x00,0x00,
 0x00,0x00,0xc2,0x03,0x8e,0x03,0xc0,0x38,0x70,0x00,0x00,0x3f,0x40,0x70,0x00,
 0x18,0x0e,0x00,0x00,0x00,0x00,0x00,0x00,0x00,0x01,0x00,0x00,0x00,0x60,0x00,
 0x01,0x00,0x02,0x0c,0x00,0x00,0x00,0x00,0xc2,0x07,0xc0,0x03,0x80,0x38,0x70,
 0x00,0x00,0x79,0x40,0x78,0x00,0x10,0x0e,0x00,0x00,0x00,0x00,0x00,0x00,0x00,
 0x01,0x00,0x00,0x00,0xc0,0x00,0x01,0x00,0x01,0x06,0x00,0x00,0x00,0x00,0xc2,
 0x07,0xc0,0x01,0x80,0x38,0x70,0x00,0x00,0x79,0x40,0x38,0x00,0x10,0x0e,0x00,
 0x00,0x00,0x00,0x00,0x00,0x00,0x01,0x00,0x00,0x00,0x80,0x03,0x01,0x00,0x01,
 0x03,0x00,0x00,0x00,0x00,0x82,0x0f,0xe0,0x01,0x00,0x38,0x70,0x80,0x00,0xf1,
 0x40,0x3c,0x00,0x00,0x0e,0x10,0x00,0x00,0x00,0x00,0x00,0x00,0x01,0x00,0x00,
 0x00,0x00,0x0e,0x02,0x00,0xc1,0x00,0x00,0x00,0x00,0x00,0x02,0x3f,0xe0,0x01,
 0x00,0x38,0x70,0x80,0x00,0xe1,0x41,0x3c,0x00,0x00,0x0e,0x10,0x00,0x00,0x00,
 0x00,0x00,0x00,0x01,0x00,0x00,0x00,0x00,0x38,0x02,0x00,0x71,0x00,0x00,0x00,
 0x00,0x00,0x02,0xfe,0xe0,0x01,0x00,0x38,0x70,0xc0,0x00,0xe1,0x43,0x3c,0x00,
 0x00,0x0e,0x18,0x00,0x00,0x00,0x00,0x00,0x00,0x01,0x00,0x00,0x00,0x00,0xe0,
 0x02,0x80,0x1e,0x00,0x00,0x00,0x00,0x00,0x02,0xfc,0xe1,0x01,0x00,0x38,0xf0,
 0xff,0x00,0xc1,0x43,0x3c,0x00,0x00,0xfe,0x1f,0x00,0x00,0x00,0x00,0x00,0x00,
 0x01,0x00,0x00,0x00,0x00,0x80,0x07,0xc0,0x01,0x00,0x00,0x00,0x00,0x00,0x02,
 0xf0,0xe3,0x01,0x00,0x38,0x70,0xc0,0x00,0x81,0x47,0x3c,0x00,0x00,0x0e,0x18,
 0x00,0x00,0x00,0x00,0x00,0x00,0x01,0x00,0x00,0x00,0x00,0x00,0xfc,0xbf,0x00,
 0x00,0x00,0x00,0x00,0x00,0x02,0xe0,0xe7,0x01,0x00,0x38,0x70,0x80,0x00,0x81,
 0x4f,0x3c,0x00,0x00,0x0e,0x10,0x00,0x00,0x00,0x00,0x00,0x00,0x01,0x00,0x00,
 0x00,0x00,0x00,0x04,0x80,0x00,0x00,0x00,0x00,0x00,0x00,0x02,0xc0,0xef,0x01,
 0x00,0x38,0x70,0x80,0x00,0x01,0x4f,0x3c,0x00,0x00,0x0e,0x10,0x00,0x00,0x00,
 0x00,0x00,0x00,0x01,0x00,0x00,0x00,0x00,0x00,0x04,0x80,0x00,0x00,0x00,0x00,
 0x00,0x00,0x02,0x80,0xcf,0x01,0x00,0x38,0x70,0x00,0x00,0x01,0x5f,0x38,0x00,
 0x00,0x0e,0x00,0x00,0x00,0x00,0x00,0x00,0x00,0x01,0x00,0x00,0x00,0x00,0x00,
 0x04,0x40,0x00,0x00,0x00,0x00,0x00,0x00,0x62,0x00,0xcf,0x03,0x00,0x38,0x70,
 0x00,0x00,0x01,0x7e,0x78,0x00,0x00,0x0e,0x00,0x00,0x00,0x00,0x00,0x00,0x00,
 0x01,0x00,0x00,0x00,0x00,0x00,0x04,0x40,0x00,0x00,0x00,0x00,0x00,0x00,0x62,
 0x00,0x8f,0x03,0x00,0x38,0x70,0x00,0x04,0x01,0x7c,0x70,0x00,0x00,0x0e,0x80,
 0x00,0x00,0x00,0x00,0x00,0x00,0x01,0x00,0x00,0x00,0x00,0x00,0x08,0x40,0x00,
 0x00,0x00,0x00,0x00,0x00,0xe2,0x00,0x8f,0x03,0x80,0x38,0x70,0x00,0x04,0x01,
 0x78,0x70,0x00,0x10,0x0e,0x80,0x00,0x00,0x00,0x00,0x00,0x00,0x01,0x00,0x00,
 0x00,0x00,0x00,0x08,0x40,0x00,0x00,0x00,0x00,0x00,0x00,0xe2,0x01,0x07,0x07,
 0xc0,0x38,0x70,0x00,0x06,0x01,0x78,0xe0,0x00,0x18,0x0e,0xc0,0x00,0x00,0x00,
 0x00,0x00,0x00,0x01,0x00,0x00,0x00,0x00,0x00,0x08,0x20,0x00,0x00,0x00,0x00,
 0x00,0x00,0xc2,0x81,0x07,0x0e,0x60,0x38,0x70,0x00,0x07,0x03,0x70,0xc0,0x01,
 0x0c,0x0e,0xe0,0x00,0x00,0x00,0x00,0x00,0x00,0x01,0x00,0x00,0x00,0x00,0x00,
 0xfe,0xff,0x01,0x00,0x00,0x00,0x00,0x00,0xc2,0xe7,0x03,0x3c,0x7c,0x7c,0xf8,
 0xc0,0x83,0x03,0x60,0x80,0x87,0x0f,0x1f,0x78,0x00,0x00,0x00,0x00,0x00,0x00,
 0x01,0x00,0x00,0x00,0x00,0xf8,0x11,0x20,0x3e,0x00,0x00,0x00,0x00,0x00,0xc2,
 0xfd,0x01,0xf0,0x1f,0xff,0xff,0xff,0xe3,0x0f,0x40,0x00,0xfe,0xc3,0xff,0x7f,
 0x00,0x00,0x00,0x00,0x00,0x00,0x01,0x00,0x00,0x00,0x80,0x07,0x10,0x20,0xc0,
 0x07,0x00,0x00,0x00,0x00,0x02,0x00,0x00,0x00,0x00,0x00,0x00,0x00,0x00,0x00,
 0x00,0x00,0x00,0x00,0x00,0x00,0x00,0x00,0x00,0x00,0x00,0x00,0x01,0x00,0x00,
 0x00,0xe0,0x00,0x10,0x20,0x00,0x1c,0x00,0x00,0x00,0x00,0x02,0x00,0x00,0x00,
 0x00,0x00,0x00,0x00,0x00,0x00,0x00,0x00,0x00,0x00,0x00,0x00,0x00,0x00,0x00,
 0x00,0x00,0x00,0x01,0x00,0x00,0x00,0x1c,0x00,0x10,0x10,0x00,0x70,0x00,0x00,
 0x00,0x00,0x02,0x00,0x00,0x00,0x00,0x00,0x00,0x00,0x00,0x00,0x00,0x00,0x00,
 0x00,0x00,0x00,0x00,0x00,0x00,0x00,0x00,0x00,0x01,0x00,0x00,0x00,0x07,0x00,
 0x10,0x10,0x00,0x80,0x03,0x00,0x00,0x00,0x02,0x00,0x00,0x00,0x00,0x00,0x00,
 0x00,0x00,0x00,0x00,0x00,0x00,0x00,0x00,0x00,0x00,0x00,0x00,0x00,0x00,0x00,
 0x01,0x00,0x00,0xc0,0x00,0x00,0x20,0x10,0x00,0x00,0x0e,0x00,0x00,0x00,0x02,
 0x00,0x00,0x00,0x00,0x00,0x00,0x00,0x00,0x00,0x00,0x00,0x00,0x00,0x00,0x00,
 0x00,0x00,0x00,0x00,0x00,0x00,0x01,0x00,0x00,0x30,0x00,0x00,0x20,0x10,0x00,
 0x00,0x38,0x00,0x00,0x00,0x02,0x00,0x00,0x00,0x00,0x00,0x00,0x00,0x00,0x00,
 0x00,0x00,0x00,0x00,0x00,0x00,0x00,0x00,0x00,0x00,0x00,0x00,0x01,0x00,0x00,
 0x18,0x00,0x00,0x20,0x08,0x00,0x00,0x60,0x00,0x00,0x00,0xe2,0xff,0x03,0xf8,
 0x83,0xdf,0xfe,0xff,0xf7,0xff,0xff,0x7f,0xfe,0x83,0x3f,0xff,0xff,0xf3,0xff,
 0x1f,0x00,0x00,0x01,0x00,0x00,0x0e,0x00,0x00,0x20,0x08,0x00,0x00,0x80,0x01,
 0x00,0x00,0x82,0x8f,0x07,0xe0,0xe0,0xf0,0x1e,0x8e,0xc7,0xe7,0xe1,0x78,0xf8,
 0x00,0x0e,0x0f,0xc7,0xc3,0x07,0x1e,0x00,0x00,0x01,0x00,0x00,0x03,0x00,0x00,
 0x40,0x08,0x00,0x00,0x00,0x03,0x00,0x00,0x02,0x07,0x0f,0x40,0xf0,0xe0,0x0e,
 0x0e,0x86,0xe3,0xe0,0x60,0x70,0x00,0x04,0x07,0x07,0x83,0x03,0x18,0x00,0x00,
 0x01,0x00,0x80,0x01,0x00,0x00,0x40,0x08,0x00,0x00,0x00,0x0c,0x00,0x00,0x02,
 0x07,0x1f,0x40,0x78,0xe0,0x06,0x0e,0x86,0x63,0xe0,0x60,0x70,0x00,0x04,0x03,
 0x07,0x83,0x03,0x10,0x00,0x00,0x01,0x00,0x60,0x00,0x00,0x00,0x40,0x08,0x00,
 0x00,0x00,0x18,0x00,0x00,0x02,0x07,0x1f,0x40,0x38,0xc0,0x06,0x0e,0x84,0x63,
 0xe0,0x40,0x70,0x00,0x04,0x03,0x07,0x82,0x03,0x10,0x00,0x00,0x01,0x00,0x30,
 0x00,0x00,0x00,0x40,0x04,0x00,0x00,0x00,0x70,0x00,0x00,0x02,0x07,0x3f,0x40,
 0x78,0xc0,0x07,0x0e,0x84,0x63,0xe0,0x40,0x70,0x00,0x04,0x03,0x07,0x82,0x03,
 0x00,0x00,0x00,0x01,0x00,0x18,0x00,0x00,0x00,0x40,0x04,0x00,0x00,0x00,0x40,
 0x00,0x00,0x02,0x07,0x79,0x40,0xf8,0x00,0x00,0x0e,0x80,0x03,0xe0,0x00,0x70,
 0x00,0x04,0x00,0x07,0x80,0x03,0x00,0x00,0x00,0x01,0x00,0x06,0x00,0x00,0x00,
 0x80,0x04,0x00,0x00,0x00,0x80,0x00,0x00,0x02,0x07,0x79,0x40,0xf8,0x00,0x00,
 0x0e,0x80,0x03,0xe0,0x00,0x70,0x00,0x04,0x00,0x07,0x80,0x03,0x00,0x00,0x00,
 0x01,0x00,0x03,0x00,0x00,0x00,0x80,0x04,0x00,0x00,0x00,0x00,0x01,0x00,0x02,
 0x07,0xf1,0x40,0xf0,0x01,0x00,0x0e,0x80,0x03,0xe0,0x00,0x70,0x00,0x04,0x00,
 0x07,0x80,0x03,0x04,0x00,0x00,0x01,0x80,0x01,0x00,0x00,0x00,0x80,0x02,0x00,
 0x00,0x00,0x00,0x02,0x00,0x02,0x07,0xe1,0x41,0xe0,0x07,0x00,0x0e,0x80,0x03,
 0xe0,0x00,0x70,0x00,0x04,0x00,0x07,0x80,0x03,0x04,0x00,0x00,0x01,0xc0,0x00,
 0x00,0x00,0x00,0x80,0x02,0x00,0x00,0x00,0x00,0x04,0x00,0x02,0x07,0xe1,0x43,
 0xc0,0x1f,0x00,0x0e,0x80,0x03,0xe0,0x00,0x70,0x00,0x04,0x00,0x07,0x80,0x03,
 0x06,0x00,0x00,0x01,0x40,0x00,0x00,0x00,0x00,0x00,0x03,0x00,0x00,0x00,0x00,
 0x08,0x00,0x02,0x07,0xc1,0x43,0x80,0x3f,0x00,0x0e,0x80,0x03,0xe0,0x00,0x70,
 0x00,0x04,0x00,0x07,0x80,0xff,0x07,0x00,0x00,0x01,0x20,0x00,0x00,0x00,0x00,
 0x00,0x03,0x00,0x00,0x00,0x00,0x10,0x00,0x02,0x07,0x81,0x47,0x00,0x7e,0x00,
 0x0e,0x80,0x03,0xe0,0x00,0x70,0x00,0x04,0x00,0x07,0x80,0x03,0x06,0x00,0x00,
 0x01,0x30,0x00,0x00,0x00,0x00,0x00,0x03,0x00,0x00,0x00,0x00,0x30,0x00,0x02,
 0x07,0x81,0x4f,0x00,0xfc,0x00,0x0e,0x80,0x03,0xe0,0x00,0x70,0x00,0x04,0x00,
 0x07,0x80,0x03,0x04,0x00,0x00,0x01,0x18,0x00,0x00,0x00,0x00,0x00,0x01,0x00,
 0x00,0x00,0x00,0x60,0x00,0x02,0x07,0x01,0x4f,0x00,0xf8,0x01,0x0e,0x80,0x03,
 0xe0,0x00,0x70,0x00,0x04,0x00,0x07,0x80,0x03,0x04,0x00,0x00,0x01,0x08,0x00,
 0x00,0x00,0x00,0x00,0x01,0x00,0x00,0x00,0x00,0x40,0x00,0x02,0x07,0x01,0x5f,
 0x00,0xf0,0x01,0x0e,0x80,0x03,0xe0,0x00,0x70,0x00,0x04,0x00,0x07,0x80,0x03,
 0x00,0x00,0x00,0x01,0x04,0x00,0x00,0x00,0x00,0x00,0x00,0x00,0x00,0x00,0x00,
 0x80,0x00,0x02,0x07,0x01,0x7e,0x0c,0xe0,0x01,0x0e,0x80,0x03,0xe0,0x00,0x70,
 0x00,0x04,0x00,0x07,0x80,0x03,0x00,0x00,0x00,0x01,0x06,0x00,0x00,0x00,0x00,
 0x00,0x00,0x00,0x00,0x00,0x00,0x80,0x01,0x02,0x07,0x01,0x7c,0x0c,0xe0,0x01,
 0x0e,0x80,0x03,0xe0,0x00,0x70,0x00,0x04,0x00,0x07,0x80,0x03,0x20,0x00,0x00,
 0x01,0x03,0x00,0x00,0x00,0x00,0x00,0x00,0x00,0x00,0x00,0x00,0x00,0x01,0x02,
 0x07,0x01,0x78,0x1c,0xe0,0x01,0x0e,0x80,0x03,0xe0,0x00,0xf0,0x00,0x06,0x00,
 0x07,0x80,0x03,0x20,0x00,0x00,0x01,0x01,0x00,0x00,0x00,0x00,0x00,0x00,0x00,
 0x00,0x00,0x00,0x00,0x02,0x02,0x07,0x01,0x78,0x3c,0xe0,0x00,0x0e,0x80,0x03,
 0xe0,0x00,0xe0,0x00,0x06,0x00,0x07,0x80,0x03,0x30,0x00,0x00,0x81,0x01,0x00,
 0x00,0x00,0x00,0x00,0x00,0x00,0x00,0x00,0x00,0x00,0x06,0x02,0x07,0x03,0x70,
 0x38,0xf0,0x00,0x0e,0x80,0x03,0xe0,0x00,0xe0,0x01,0x03,0x00,0x07,0x80,0x03,
 0x38,0x00,0x00,0xc1,0x00,0x00,0x00,0x00,0x00,0x00,0x00,0x00,0x00,0x00,0x00,
 0x00,0x04,0x82,0x8f,0x03,0x60,0xf8,0x7c,0x00,0x1f,0xc0,0x07,0xf0,0x01,0xc0,
 0xc7,0x03,0x80,0x0f,0xc0,0x07,0x1e,0x00,0x00,0x41,0x00,0x00,0x00,0x00,0x00,
 0x00,0x00,0x00,0x00,0x00,0x00,0x00,0x08,0xe2,0xff,0x0f,0x40,0xb8,0x3f,0xc0,
 0x7f,0xf0,0x1f,0xfc,0x07,0x00,0xff,0x00,0xe0,0x3f,0xf0,0xff,0x1f,0x00,0x00,
 0xff,0xff,0xff,0xff,0xff,0xff,0xff,0xff,0xff,0xff,0xff,0xff,0xff,0xff,0x03,
 0x00,0x00,0x00,0x00,0x00,0x00,0x00,0x00,0x00,0x00,0x00,0x00,0x00,0x00,0x00,
 0x00,0x00,0x00,0x00,0x00,0x00};
